<svg xmlns="http://www.w3.org/2000/svg" version="1.1" xmlns:xlink="http://www.w3.org/1999/xlink" viewBox="0 0 10.125374916331959 9.552167170471874"><g transform="matrix(0.853484570136632,0,0,0.853484570136632,1.4415317687512892,6.844759698241186)"><rect width="11.765170090232278" height="11.765170090232278" x="-1.6397951739003194" y="-8.306385293401917" fill="#ffffff"></rect><g transform="matrix(1,0,0,1,0,0)" clip-path="url(#SvgjsClipPath10839)"><g clip-path="url(#SvgjsClipPath10834dc6d0504-f047-492a-8517-f9f252796dc7)"><path d=" M 4.24342783550985 -6.379986246571555 C 4.643326254631231 -6.380338022393291 5.036502026070882 -6.277135487604225 5.384675072608327 -6.080426568063595 L 5.26856557109483 -5.87429321617028 C 5.543236009321786 -5.7189725732567425 5.779481915590732 -5.50389964915341 5.959835326137335 -5.2449768825702625 L 6.154627090581225 -5.37937469384596 C 6.734362087557108 -4.541941066013902 6.702079220800908 -3.424793036343858 6.074952438749008 -2.6222347848905354 L 6.611409525106851 -2.891597486814399 C 6.611409525106851 -2.891597486814399 7.815319032863405 -2.3698844641408083 8.084114655414798 -0.2491493809412928 L 6.565759635622912 -1.6170865971851676 L 6.359626283729596 -1.3389341649879993 L 5.931339587670652 -1.780830765986254 C 5.931339587670652 -1.780830765986254 5.934742063905481 -0.9903221207612729 5.6557390126496045 -0.24971646031376427 L 4.962059170274096 -1.645015256279379 L 4.784421556847463 -1.1620054007769562 L 4.243427835509849 -1.5022530242597316 L 3.7012999554272934 -1.1620054007769562 L 3.524796500745604 -1.6450152562793798 L 2.8301242694682704 -0.24971646031376515 C 2.5511212182123946 -0.9900385810750372 2.5545236944472225 -1.7808307659862548 2.5545236944472225 -1.7808307659862548 L 2.1262369983882787 -1.338934164988001 L 1.9212378052399062 -1.6179372162438765 L 0.4016068568599609 -0.2499999999999991 C 0.6709695587838247 -2.3707350831995164 1.8743119871679077 -2.892448105873105 1.8743119871679077 -2.892448105873105 L 2.4107690735257505 -2.6230854039492404 C 1.78381521245186 -3.4255126089285852 1.751985265739086 -4.542548392303585 2.3322285804384766 -5.379374693845957 L 2.5270203448823656 -5.2449768825702625 C 2.706791759772086 -5.503791496274037 2.942461100642661 -5.7188688408719965 3.2165888618074576 -5.8742932161702806 L 3.10047936029396 -6.080426568063594 C 3.4490065449099583 -6.277276742808832 3.8425846718909527 -6.380482325125888 4.242860756137379 -6.379986246571554 Z" fill="#000000" transform="matrix(1,0,0,1,0,0)" fill-rule="evenodd"></path></g><g clip-path="url(#SvgjsClipPath10834dc6d0504-f047-492a-8517-f9f252796dc7)"><path d=" M 5.650068218924892 -4.295118933680848 C 5.633498791925254 -4.395719065482918 5.606022478910075 -4.494215467848748 5.568125249602789 -4.5888660486209805 L 5.921132158966168 -4.731344740954389 L 5.921132158966168 -4.731344740954389 C 5.8837728258469975 -4.824857272534693 5.8384278973035455 -4.914977946418123 5.785600188945532 -5.0007074428782525 L 6.137047630034615 -5.222719017200765 C 6.600155867272528 -4.469432426344794 6.574236086183964 -3.5136265932420723 6.070982883141707 -2.786546033064091 L 5.729742870757108 -3.023443440913974 C 5.876671743619422 -3.2346272394016573 5.976509804809893 -3.474915454470246 6.022497596795414 -3.728039561209555 L 5.6477999014350075 -3.797506784337288 L 5.416573287309837 -3.840037737272635 C 5.42224408103455 -4.006333763249842 5.375601802648786 -4.089552661160004 5.375601802648786 -4.089552661160004 C 5.391480025077983 -3.9436714925917635 5.351642699161874 -3.8515210945651788 5.351642699161874 -3.8515210945651788 C 5.24989569807713 -3.5530886333441267 5.026408339729861 -3.3117758655943317 4.736645119716758 -3.1874711494012953 C 4.992838299345011 -3.3334039217680758 5.17129371820816 -3.585255490216011 5.224049840355834 -3.875338428208972 L 5.224049840355834 -3.875338428208972 C 5.235542878137473 -3.9342330129181087 5.241287905314975 -3.994104742429108 5.24120399137309 -4.054110200380548 C 5.240890438230392 -4.096330079972887 5.238240013241543 -4.1385002347061715 5.233264880158489 -4.180427130598542 L 5.658574409511961 -4.235150290042009 L 5.925101714573469 -4.261377711018806 Z M 2.8322508171150385 -4.273428147683822 C 2.8481249171584753 -4.381703343246949 2.8771665505697888 -4.487633891345594 2.9187304214169094 -4.588866048620973 L 2.629519941456551 -4.705117319977592 L 2.506463717630281 -4.32233874355947 C 2.514402828844879 -4.573980215093606 2.571394305778244 -4.7801135669869215 2.706926275798882 -5.01134018111209 L 2.3561876839253877 -5.235761842767604 C 1.8849556918924961 -4.481108277910293 1.9077494639747958 -3.518475453515261 2.414171549760577 -2.7869713425934455 L 2.755978641517649 -3.0238687504433273 C 2.6249399547953907 -3.213555017078563 2.531082406489463 -3.4263821794083573 2.479385677594778 -3.6510585363965764 L 2.212858372533269 -3.6782783462751993 C 2.5626045755049396 -3.7466114106579895 2.9122090086334906 -3.8104078400610097 3.2619552116051604 -3.8753384282089725 C 3.194328330871884 -4.241906728263972 3.337182461240786 -4.61553784901818 3.6321162719857965 -4.843484686860586 C 3.408563299042908 -4.687515702037398 3.250054232529002 -4.45489784535515 3.186675424909597 -4.189783940244305 L 2.5807511154240204 -4.259251163372038 Z" fill="#0094ff" transform="matrix(1,0,0,1,0,0)" fill-rule="evenodd"></path></g><g clip-path="url(#SvgjsClipPath10834dc6d0504-f047-492a-8517-f9f252796dc7)"><path d=" M 4.24342783550985 -6.279896737330372 C 4.6012091558610555 -6.280209794297126 4.95373766672164 -6.193816716432023 5.270833888584714 -6.028113495953117 L 5.078310441630711 -5.659511903846778 C 4.885141136243111 -5.760538639744081 4.67513049353358 -5.825401226716826 4.458634457362705 -5.850901192055838 C 4.606315978049429 -5.825484833241617 4.748278198031674 -5.773923309988005 4.877847883462108 -5.698640380547298 L 4.759328294615608 -5.449125456659928 C 4.43952692998604 -5.63285561102741 4.046194582288718 -5.63285561102741 3.726393217659149 -5.449125456659928 L 3.6078736288126496 -5.698640380547297 C 3.737501315851935 -5.773626103854765 3.8794606010759014 -5.824898513939038 4.027087054912053 -5.850050572997132 C 3.81059101874118 -5.82455060765812 3.600580376031648 -5.759688020685374 3.4074110706440477 -5.658661284788071 L 3.214887623690044 -6.027262876894411 C 3.5322650065132555 -6.193396913810855 3.885197622229849 -6.2800855314823885 4.243427835509849 -6.279896737330371 Z" fill="#0094ff" transform="matrix(1,0,0,1,0,0)" fill-rule="evenodd"></path></g><g clip-path="url(#SvgjsClipPath10834dc6d0504-f047-492a-8517-f9f252796dc7)"><path d=" M 4.24342783550985 -4.82179390086356 C 4.357314290059687 -4.822082449912265 4.469811836472256 -4.796792303819517 4.5726174112294355 -4.747790042756057 C 4.552206726968845 -4.750429170792001 4.531666333449954 -4.7519436698533015 4.511089299316301 -4.752326677735826 C 4.3352375180758855 -4.752556024987838 4.176584305085017 -4.646771663574128 4.109182754288836 -4.484349582206296 C 4.041781203492654 -4.321927500838465 4.07892122730245 -4.134893301443167 4.2032673200548745 -4.010547208690744 C 4.327613412807297 -3.886201115938319 4.514647612202596 -3.849061092128524 4.677069693570427 -3.9164626429247047 C 4.839491774938259 -3.9838641937208865 4.945276136351969 -4.142517406711754 4.945046789099957 -4.318369187952169 C 4.945042523218755 -4.336286023969715 4.943906100148607 -4.3541846873247625 4.941644312865168 -4.371958188650407 C 4.987136847645934 -4.272196225644921 5.010450442361054 -4.163754152301979 5.00997737724792 -4.054110200380548 C 5.009805263720106 -3.7438276659865055 4.822732859069647 -3.4642038870899734 4.535997845513135 -3.3456361310439497 C 4.249262831956624 -3.2270683749979265 3.9193376705006653 -3.292908561391507 3.7000767280901408 -3.5124533629840085 C 3.4808157856796167 -3.7319981645765097 3.4154025049885384 -4.062008232627944 3.534341133847234 -4.348589605606467 C 3.6532797627059312 -4.6351709785849895 3.9331453381247403 -4.821881454995879 4.243427835509875 -4.821652131020443 Z" fill="#0094ff" transform="matrix(1,0,0,1,0,0)" fill-rule="evenodd"></path></g><g clip-path="url(#SvgjsClipPath10834dc6d0504-f047-492a-8517-f9f252796dc7)"><path d=" M 2.675028061097373 -2.0758538095144434 L 2.8621642540128995 -1.9505292681982889 L 3.1525088927182012 -2.5034316563577987 L 3.1924879884774278 -1.8907023944025667 L 3.5409582628610363 -1.9474103316496967 L 2.8530909840533583 -0.5623189643885622 C 2.8530909840533583 -0.5623189643885622 2.657165060864527 -1.0794953520823825 2.675311600783609 -2.0761373492006783 Z M 1.874311987167908 -2.759184453342351 L 1.8835270269705666 -2.4641614098141615 L 1.3778339965692914 -1.686553820312902 L 1.249106979018308 -1.9313903393773817 L 1.3321841070853522 -1.2491938542944174 L 0.5713053590719952 -0.5631695834472712 C 0.5713053590719952 -0.5631695834472712 0.8036661319421073 -2.1368148420551085 1.8743119871679077 -2.759184453342351 Z" fill="#0094ff" transform="matrix(1,0,0,1,0,0)" fill-rule="evenodd"></path></g><g clip-path="url(#SvgjsClipPath10834dc6d0504-f047-492a-8517-f9f252796dc7)"><path d=" M 5.811827609922328 -2.0758538095144434 L 5.623840797948095 -1.9505292681982889 L 5.3334961592427925 -2.5034316563577987 L 5.293517063483566 -1.8907023944025667 L 4.945046789099957 -1.9474103316496967 L 5.634189996495696 -0.5623189643885622 C 5.634189996495696 -0.5623189643885622 5.8288399910964666 -1.0794953520823825 5.811827609922328 -2.0761373492006783 Z M 6.612543683851794 -2.759184453342351 L 6.603328644049136 -2.4641614098141615 L 7.0995230949615165 -1.7010143443109191 L 7.259014168469068 -1.9743466018420817 L 7.154246254404997 -1.2489103146081808 L 7.915125002418352 -0.5631695834472712 C 7.915125002418352 -0.5631695834472712 7.6827642295482415 -2.1368148420551085 6.613252533067383 -2.759184453342351 Z" fill="#0094ff" transform="matrix(1,0,0,1,0,0)" fill-rule="evenodd"></path></g></g><g><path d=" M 0.0776895 1.1177774999999999 Q 0.08006775 1.0741762499999998 0.08244599999999999 0.9992613749999999 Q 0.08482424999999999 0.9243464999999998 0.08640975 0.8304056249999998 Q 0.08799525 0.7364647499999999 0.08799525 0.6365782499999999 Q 0.08799525 0.5366917499999999 0.08640975 0.43878712499999994 Q 0.08482424999999999 0.34088249999999987 0.08244599999999999 0.25764374999999995 Q 0.08006775 0.17440499999999992 0.0776895 0.11811974999999997 Q 0.10067925 0.11494874999999993 0.14982974999999998 0.11098499999999989 Q 0.19898025 0.10702124999999985 0.2520945 0.10702124999999985 Q 0.2774625 0.10702124999999985 0.31155075 0.10860674999999986 Q 0.345639 0.11019224999999988 0.35753025 0.1125704999999999 Q 0.35911574999999996 0.15379349999999992 0.35871937499999995 0.21721349999999995 Q 0.35832299999999995 0.28063349999999987 0.356341125 0.35911574999999996 Q 0.35435924999999996 0.43759799999999993 0.35118825 0.5251968749999999 Q 0.34801725 0.6127957499999999 0.34405349999999996 0.7007909999999999 Q 0.34167525 0.7475632499999999 0.33890062499999996 0.7915608749999998 Q 0.336126 0.8355584999999999 0.332955 0.8664757499999999 Q 0.39558224999999997 0.862512 0.456624 0.8601337499999999 Q 0.5176657499999999 0.8577554999999999 0.5791038749999999 0.8561699999999999 Q 0.640542 0.8545844999999999 0.7023765 0.8545844999999999 Q 0.7055475 0.8751959999999999 0.7079257499999999 0.9195899999999999 Q 0.7103039999999999 0.9639839999999998 0.7118895 1.0143236249999998 Q 0.713475 1.06466325 0.713475 1.1019225 Q 0.6183449999999999 1.1146064999999998 0.521233125 1.120552125 Q 0.42412124999999995 1.12649775 0.33691875 1.1272904999999998 Q 0.26477849999999997 1.1280832499999998 0.19779112499999998 1.125308625 Q 0.13080375 1.122534 0.0776895 1.1177774999999999 M 1.1660857031249998 1.1502802499999998 Q 1.0685774531249999 1.1502802499999998 0.9877169531249999 1.123723125 Q 0.9068564531249999 1.0971659999999999 0.8588950781249999 1.0373133749999999 Q 0.8109337031249999 0.9774607499999999 0.8109337031249999 0.8783669999999999 Q 0.8109337031249999 0.7792732499999999 0.8668225781249999 0.7186278749999999 Q 0.9227114531249999 0.6579824999999999 1.014274078125 0.630632625 Q 1.1058367031249998 0.6032827499999999 1.2112724531249999 0.6032827499999999 Q 1.2524954531249999 0.6032827499999999 1.2905474531249999 0.6096247499999999 Q 1.3285994531249998 0.6159667499999999 1.357534828125 0.6246869999999999 Q 1.386470203125 0.6334072499999999 1.3991542031249997 0.64133475 Q 1.3983614531249997 0.6207232499999998 1.3908303281249998 0.5977334999999999 Q 1.383299203125 0.5747437499999999 1.3698224531249998 0.5588887499999999 Q 1.346039953125 0.5263859999999999 1.3052133281249998 0.5045853749999999 Q 1.264386703125 0.4827847499999999 1.197795703125 0.4827847499999999 Q 1.1304119531249999 0.4827847499999999 1.078883203125 0.5133056249999999 Q 1.0273544531249998 0.5438264999999999 1.000400953125 0.5818784999999999 L 0.8069699531249999 0.4574167499999999 Q 0.8426437031249999 0.4066807499999999 0.9032890781249999 0.36862874999999995 Q 0.9639344531249999 0.33057674999999986 1.041227578125 0.30917249999999996 Q 1.118520703125 0.28776824999999995 1.2033449531249998 0.28776824999999995 Q 1.343661703125 0.28776824999999995 1.4308642031249998 0.3337477499999999 Q 1.518066703125 0.37972724999999996 1.5600824531249997 0.46217324999999987 Q 1.579901203125 0.5018107499999999 1.5925852031249998 0.5493757499999999 Q 1.6052692031249998 0.5969407499999999 1.6100257031249998 0.6587752499999999 Q 1.6131967031249999 0.7118894999999998 1.6147822031249999 0.7578689999999999 Q 1.6163677031249999 0.8038484999999999 1.617953203125 0.8450714999999999 Q 1.619538703125 0.9053204999999999 1.6314299531249998 0.9235537499999998 Q 1.6433212031249997 0.9417869999999999 1.665518203125 0.9417869999999999 Q 1.6861297031249998 0.9417869999999999 1.7023810781249997 0.9302921249999998 Q 1.718632453125 0.9187972499999999 1.7233889531249997 0.8997712499999999 L 1.8058349531249998 1.0575284999999999 Q 1.7971147031249997 1.0939949999999998 1.7566844531249999 1.1185702499999999 Q 1.7162542031249999 1.1431455 1.6544197031249999 1.1431455 Q 1.6092329531249998 1.1431455 1.5688027031249998 1.1276868749999998 Q 1.5283724531249998 1.1122282499999998 1.502211703125 1.085671125 Q 1.476050953125 1.0591139999999999 1.4712944531249998 1.02502575 Q 1.458610453125 1.0551502499999998 1.418180203125 1.084085625 Q 1.377749953125 1.1130209999999998 1.314329953125 1.1316506249999998 Q 1.2509099531249999 1.1502802499999998 1.1660857031249998 1.1502802499999998 M 1.219199953125 0.9639839999999998 Q 1.256459203125 0.9639839999999998 1.295700328125 0.9524891249999998 Q 1.334941453125 0.9409942499999999 1.367047828125 0.9235537499999998 Q 1.3991542031249997 0.9061132499999999 1.416594703125 0.8878799999999999 Q 1.415009203125 0.86330475 1.4138200781249999 0.8371439999999999 Q 1.4126309531249999 0.8109832499999998 1.4134237031249999 0.7927499999999998 Q 1.395983203125 0.7856152499999999 1.3472290781249998 0.7772913749999999 Q 1.298474953125 0.7689674999999998 1.2453607031249998 0.7689674999999998 Q 1.197002953125 0.7689674999999998 1.154987203125 0.7792732499999999 Q 1.112971453125 0.7895789999999998 1.0864143281249998 0.8109832499999998 Q 1.059857203125 0.8323874999999998 1.059857203125 0.8664757499999999 Q 1.059857203125 0.9029422499999998 1.079675953125 0.9243464999999998 Q 1.099494703125 0.9457507499999999 1.135168453125 0.9548673749999999 Q 1.1708422031249999 0.9639839999999998 1.219199953125 0.9639839999999998 M 2.306887790771484 0.9330667499999998 Q 2.145166790771484 0.9330667499999998 2.050433165771484 0.8870872499999999 Q 1.9556995407714841 0.8411077499999999 1.9152692907714841 0.7685711249999998 Q 1.8748390407714841 0.6960344999999999 1.8748390407714841 0.6159667499999999 Q 1.8748390407714841 0.5129092499999999 1.928746040771484 0.4423544999999999 Q 1.982653040771484 0.3717997499999999 2.075404790771484 0.3357296249999999 Q 2.1681565407714842 0.29965949999999997 2.2870690407714838 0.29965949999999997 Q 2.478121790771484 0.29965949999999997 2.572855415771484 0.3836909999999999 Q 2.667589040771484 0.46772249999999993 2.667589040771484 0.6064537499999999 Q 2.667589040771484 0.7142677499999999 2.622005915771484 0.7868043749999999 Q 2.576422790771484 0.8593409999999999 2.495562290771484 0.8962038749999999 Q 2.414701790771484 0.9330667499999998 2.306887790771484 0.9330667499999998 M 2.271214040771484 1.5323857499999998 Q 2.147545040771484 1.5323857499999998 2.046469415771484 1.508999625 Q 1.945393790771484 1.4856135 1.885541165771484 1.426553625 Q 1.825688540771484 1.36749375 1.825688540771484 1.26126525 Q 1.825688540771484 1.1954669999999998 1.868497040771484 1.1395781249999999 Q 1.911305540771484 1.08368925 1.991373290771484 1.0476191249999998 Q 2.071441040771484 1.0115489999999998 2.180840540771484 1.005207 Q 2.229991040771484 1.002036 2.285087165771484 1.000846875 Q 2.340183290771484 0.9996577499999999 2.414701790771484 0.9996577499999999 Q 2.540749040771484 0.9996577499999999 2.621213165771484 1.0555466249999998 Q 2.701677290771484 1.1114354999999998 2.701677290771484 1.2343117499999998 Q 2.701677290771484 1.34212575 2.644995665771484 1.407924 Q 2.588314040771484 1.4737222499999998 2.491202165771484 1.503054 Q 2.394090290771484 1.5323857499999998 2.271214040771484 1.5323857499999998 M 2.278348790771484 1.3785922499999999 Q 2.332255790771484 1.3785922499999999 2.374271540771484 1.36749375 Q 2.416287290771484 1.3563952499999998 2.440862540771484 1.3326127499999998 Q 2.465437790771484 1.3088302499999998 2.465437790771484 1.2699854999999998 Q 2.465437790771484 1.2358972499999998 2.446015415771484 1.2164748749999998 Q 2.426593040771484 1.1970524999999999 2.396864915771484 1.1891249999999998 Q 2.367136790771484 1.1811975 2.335426790771484 1.1811975 Q 2.314022540771484 1.1811975 2.286276290771484 1.1811975 Q 2.258530040771484 1.1811975 2.231972915771484 1.1811975 Q 2.205415790771484 1.1811975 2.187975290771484 1.1811975 Q 2.158643540771484 1.1811975 2.133671915771484 1.1887286249999998 Q 2.108700290771484 1.1962597499999998 2.093241665771484 1.2160784999999998 Q 2.077783040771484 1.2358972499999998 2.077783040771484 1.2723637499999998 Q 2.077783040771484 1.3088302499999998 2.103943790771484 1.3326127499999998 Q 2.130104540771484 1.3563952499999998 2.175291290771484 1.36749375 Q 2.220478040771484 1.3785922499999999 2.278348790771484 1.3785922499999999 M 2.081746790771484 1.08686025 Q 1.973932790771484 1.06466325 1.931520665771484 1.0258185 Q 1.889108540771484 0.9869737499999999 1.889108540771484 0.9394087499999999 Q 1.889108540771484 0.9021494999999999 1.905756290771484 0.8747996249999999 Q 1.922404040771484 0.8474497499999999 1.945790165771484 0.8304056249999998 Q 1.969176290771484 0.8133614999999998 1.990580540771484 0.8078122499999999 L 2.147545040771484 0.8870872499999999 Q 2.117420540771484 0.8973929999999999 2.102754665771484 0.9136443749999998 Q 2.088088790771484 0.9298957499999999 2.088088790771484 0.9465434999999999 Q 2.088088790771484 0.9687404999999999 2.112267665771484 0.9869737499999999 Q 2.136446540771484 1.005207 2.180840540771484 1.005207 L 2.081746790771484 1.08686025 M 2.285483540771484 0.7443922499999999 Q 2.336219540771484 0.7443922499999999 2.371100540771484 0.7285372499999998 Q 2.405981540771484 0.7126822499999999 2.423818415771484 0.681765 Q 2.441655290771484 0.6508477499999998 2.441655290771484 0.6064537499999999 Q 2.441655290771484 0.56998725 2.421440165771484 0.5422409999999999 Q 2.401225040771484 0.5144947499999999 2.368325915771484 0.49903612499999994 Q 2.335426790771484 0.4835774999999999 2.295789290771484 0.4835774999999999 Q 2.230783790771484 0.4835774999999999 2.179651415771484 0.5113237499999999 Q 2.128519040771484 0.5390699999999999 2.128519040771484 0.6096247499999999 Q 2.128519040771484 0.6754229999999999 2.173309415771484 0.7099076249999998 Q 2.218099790771484 0.7443922499999999 2.285483540771484 0.7443922499999999 M 2.600998040771484 0.49943249999999995 L 2.461474040771484 0.3821054999999999 Q 2.470987040771484 0.35118824999999987 2.497544165771484 0.3159108749999999 Q 2.524101290771484 0.28063349999999987 2.558585915771484 0.25011262499999987 Q 2.593070540771484 0.21959174999999997 2.625573290771484 0.2037367499999999 Q 2.636671790771484 0.22038449999999987 2.657283290771484 0.24971624999999997 Q 2.677894790771484 0.27904799999999996 2.700091790771484 0.30917249999999996 Q 2.722288790771484 0.33929699999999996 2.738143790771484 0.35911574999999996 Q 2.719910540771484 0.36783599999999994 2.698902665771484 0.3825018749999999 Q 2.677894790771484 0.39716774999999993 2.658076040771484 0.4157973749999999 Q 2.638257290771484 0.4344269999999999 2.623195040771484 0.4558312499999999 Q 2.608132790771484 0.4772354999999999 2.600998040771484 0.49943249999999995 M 2.8704989772949214 1.1431455 Q 2.8665352272949214 1.0916167499999998 2.8629678522949216 1.0115489999999998 Q 2.8594004772949217 0.9314812499999998 2.8566258522949215 0.8375403749999999 Q 2.8538512272949217 0.7435994999999999 2.8518693522949214 0.6508477499999998 Q 2.8498874772949216 0.5580959999999999 2.8490947272949216 0.47921737499999995 Q 2.8483019772949216 0.40033874999999985 2.8483019772949216 0.3519809999999999 Q 2.8673279772949214 0.34722449999999994 2.8990379772949217 0.3420716249999999 Q 2.9307479772949216 0.33691874999999993 2.9664217272949216 0.3325586249999999 Q 3.0020954772949215 0.32819849999999995 3.0342018522949217 0.3254238749999999 Q 3.066308227294922 0.3226492499999999 3.0861269772949216 0.3226492499999999 Q 3.0869197272949216 0.3353332499999999 3.0877124772949216 0.3547556249999999 Q 3.0885052272949216 0.3741779999999999 3.0889016022949214 0.3947894999999999 Q 3.0892979772949216 0.4154009999999999 3.0892979772949216 0.43204874999999987 Q 3.0892979772949216 0.44869649999999994 3.0892979772949216 0.4574167499999999 Q 3.0940544772949217 0.4423544999999999 3.1114949772949214 0.41857199999999994 Q 3.1289354772949216 0.3947894999999999 3.1594563522949217 0.37100699999999986 Q 3.1899772272949214 0.34722449999999994 3.2335784772949214 0.33097312499999987 Q 3.2771797272949215 0.3147217499999999 3.3342577272949216 0.3147217499999999 Q 3.3889574772949214 0.3147217499999999 3.427009477294922 0.3353332499999999 Q 3.4650614772949213 0.3559447499999999 3.4904294772949216 0.38924024999999995 Q 3.5157974772949214 0.4225357499999999 3.5300669772949216 0.46138049999999986 Q 3.5372017272949217 0.48040649999999985 3.5415618522949215 0.50022525 Q 3.5459219772949213 0.520044 3.548300227294922 0.5390699999999999 Q 3.5657407272949215 0.48119924999999986 3.6065673522949213 0.42848137499999994 Q 3.6473939772949215 0.3757634999999999 3.7084357272949218 0.3420716249999999 Q 3.7694774772949216 0.30837974999999995 3.8487524772949215 0.30837974999999995 Q 3.9438824772949213 0.30837974999999995 4.005320602294922 0.3424679999999999 Q 4.066758727294921 0.3765562499999999 4.100846977294921 0.4431472499999999 Q 4.134935227294921 0.50973825 4.148411977294922 0.6064537499999999 Q 4.161888727294921 0.70316925 4.161888727294921 0.8276309999999999 Q 4.161888727294921 0.8767814999999999 4.159906852294921 0.9306884999999998 Q 4.157924977294922 0.9845954999999998 4.154753977294922 1.03929525 Q 4.151582977294922 1.0939949999999998 4.148411977294922 1.14552375 Q 4.119872977294921 1.1471092499999997 4.0889557272949215 1.1482983749999998 Q 4.058038477294922 1.1494874999999998 4.027121227294922 1.1494874999999998 Q 3.996203977294922 1.1494874999999998 3.9640976022949213 1.1482983749999998 Q 3.9319912272949216 1.1471092499999997 3.8994884772949217 1.144731 Q 3.915343477294922 1.0266112499999998 3.9256492272949215 0.9271211249999999 Q 3.9359549772949216 0.8276309999999999 3.9359549772949216 0.7523197499999998 Q 3.9359549772949216 0.6421275 3.9109833522949216 0.5842567499999999 Q 3.8860117272949215 0.5263859999999999 3.8257627272949213 0.5263859999999999 Q 3.7710629772949216 0.5263859999999999 3.7369747272949216 0.5596814999999999 Q 3.7028864772949213 0.5929769999999999 3.6838604772949215 0.6516404999999998 Q 3.6648344772949217 0.7103039999999998 3.6565106022949214 0.7875971249999999 Q 3.6481867272949215 0.8648902499999999 3.6450157272949215 0.9528854999999998 Q 3.6434302272949215 0.9972794999999999 3.6418447272949215 1.04563725 Q 3.6402592272949215 1.0939949999999998 3.6402592272949215 1.14393825 Q 3.6244042272949217 1.144731 3.5954688522949216 1.145920125 Q 3.5665334772949215 1.1471092499999997 3.5348234772949216 1.1471092499999997 Q 3.4975642272949217 1.1471092499999997 3.4630796022949215 1.145920125 Q 3.428594977294922 1.144731 3.4127399772949216 1.14235275 Q 3.4119472272949216 1.0884457499999998 3.4119472272949216 1.04088075 Q 3.4119472272949216 0.9933157499999998 3.4119472272949216 0.9433724999999998 Q 3.4119472272949216 0.8529989999999998 3.4075871022949213 0.7764986249999999 Q 3.4032269772949215 0.6999982499999999 3.389750227294922 0.6433166249999999 Q 3.3762734772949217 0.5866349999999999 3.3497163522949216 0.5549249999999999 Q 3.3231592272949215 0.5232149999999999 3.2779724772949215 0.5232149999999999 Q 3.2470552272949216 0.5232149999999999 3.2177234772949217 0.5366917499999999 Q 3.1883917272949214 0.5501685 3.1642128522949218 0.5715727499999999 Q 3.1400339772949217 0.5929769999999999 3.1237826022949218 0.6187413749999999 Q 3.1075312272949214 0.6445057499999999 3.1011892272949217 0.6698737499999998 Q 3.1059457272949214 0.7959209999999999 3.1114949772949214 0.8997712499999999 Q 3.1170442272949215 1.0036215 3.1218007272949215 1.0690233749999998 Q 3.1265572272949216 1.1344252499999998 3.1281427272949216 1.1479019999999998 Q 3.1194224772949215 1.1486947499999998 3.0916762272949216 1.1494874999999998 Q 3.0639299772949213 1.1502802499999998 3.0433184772949216 1.1502802499999998 Q 2.9933752272949214 1.1502802499999998 2.943431977294922 1.1479019999999998 Q 2.8934887272949217 1.14552375 2.8704989772949214 1.1431455 M 4.641528024902343 1.1502802499999998 Q 4.544019774902344 1.1502802499999998 4.463159274902344 1.123723125 Q 4.382298774902344 1.0971659999999999 4.334337399902344 1.0373133749999999 Q 4.286376024902343 0.9774607499999999 4.286376024902343 0.8783669999999999 Q 4.286376024902343 0.7792732499999999 4.342264899902343 0.7186278749999999 Q 4.398153774902344 0.6579824999999999 4.489716399902344 0.630632625 Q 4.581279024902344 0.6032827499999999 4.6867147749023434 0.6032827499999999 Q 4.727937774902343 0.6032827499999999 4.765989774902343 0.6096247499999999 Q 4.804041774902343 0.6159667499999999 4.8329771499023435 0.6246869999999999 Q 4.861912524902343 0.6334072499999999 4.874596524902343 0.64133475 Q 4.873803774902344 0.6207232499999998 4.866272649902343 0.5977334999999999 Q 4.858741524902343 0.5747437499999999 4.845264774902343 0.5588887499999999 Q 4.821482274902343 0.5263859999999999 4.780655649902343 0.5045853749999999 Q 4.739829024902344 0.4827847499999999 4.673238024902344 0.4827847499999999 Q 4.6058542749023434 0.4827847499999999 4.554325524902343 0.5133056249999999 Q 4.502796774902343 0.5438264999999999 4.475843274902344 0.5818784999999999 L 4.282412274902343 0.4574167499999999 Q 4.318086024902343 0.4066807499999999 4.378731399902343 0.36862874999999995 Q 4.439376774902343 0.33057674999999986 4.516669899902343 0.30917249999999996 Q 4.593963024902344 0.28776824999999995 4.678787274902343 0.28776824999999995 Q 4.819104024902344 0.28776824999999995 4.906306524902344 0.3337477499999999 Q 4.993509024902344 0.37972724999999996 5.035524774902344 0.46217324999999987 Q 5.0553435249023435 0.5018107499999999 5.068027524902344 0.5493757499999999 Q 5.080711524902343 0.5969407499999999 5.085468024902343 0.6587752499999999 Q 5.088639024902343 0.7118894999999998 5.090224524902343 0.7578689999999999 Q 5.091810024902343 0.8038484999999999 5.093395524902343 0.8450714999999999 Q 5.094981024902343 0.9053204999999999 5.106872274902344 0.9235537499999998 Q 5.118763524902343 0.9417869999999999 5.140960524902344 0.9417869999999999 Q 5.161572024902343 0.9417869999999999 5.177823399902343 0.9302921249999998 Q 5.194074774902344 0.9187972499999999 5.198831274902343 0.8997712499999999 L 5.281277274902344 1.0575284999999999 Q 5.272557024902343 1.0939949999999998 5.232126774902343 1.1185702499999999 Q 5.191696524902343 1.1431455 5.129862024902343 1.1431455 Q 5.084675274902343 1.1431455 5.044245024902343 1.1276868749999998 Q 5.003814774902343 1.1122282499999998 4.9776540249023435 1.085671125 Q 4.951493274902344 1.0591139999999999 4.946736774902344 1.02502575 Q 4.9340527749023435 1.0551502499999998 4.8936225249023435 1.084085625 Q 4.8531922749023435 1.1130209999999998 4.789772274902344 1.1316506249999998 Q 4.726352274902343 1.1502802499999998 4.641528024902343 1.1502802499999998 M 4.6946422749023435 0.9639839999999998 Q 4.7319015249023435 0.9639839999999998 4.771142649902344 0.9524891249999998 Q 4.810383774902343 0.9409942499999999 4.842490149902344 0.9235537499999998 Q 4.874596524902343 0.9061132499999999 4.8920370249023435 0.8878799999999999 Q 4.8904515249023435 0.86330475 4.889262399902344 0.8371439999999999 Q 4.888073274902343 0.8109832499999998 4.8888660249023435 0.7927499999999998 Q 4.871425524902343 0.7856152499999999 4.822671399902344 0.7772913749999999 Q 4.7739172749023435 0.7689674999999998 4.720803024902343 0.7689674999999998 Q 4.672445274902343 0.7689674999999998 4.630429524902343 0.7792732499999999 Q 4.588413774902343 0.7895789999999998 4.561856649902343 0.8109832499999998 Q 4.535299524902343 0.8323874999999998 4.535299524902343 0.8664757499999999 Q 4.535299524902343 0.9029422499999998 4.555118274902344 0.9243464999999998 Q 4.5749370249023436 0.9457507499999999 4.6106107749023435 0.9548673749999999 Q 4.6462845249023434 0.9639839999999998 4.6946422749023435 0.9639839999999998 M 5.347903112548828 1.1185702499999999 Q 5.347903112548828 1.0876529999999998 5.348695862548827 1.0194765 Q 5.349488612548828 0.9512999999999998 5.351470487548828 0.8613228749999999 Q 5.353452362548827 0.7713457499999998 5.355830612548828 0.6714592499999998 Q 5.358208862548827 0.5715727499999999 5.360190737548828 0.4756499999999999 Q 5.362172612548828 0.37972724999999996 5.364154487548827 0.30045224999999987 Q 5.366136362548827 0.22117724999999988 5.366929112548828 0.1720267499999999 Q 5.367721862548827 0.12287625000000002 5.367721862548827 0.11811974999999997 Q 5.412115862548828 0.11494874999999993 5.472761237548828 0.11098499999999989 Q 5.533406612548828 0.10702124999999985 5.600393987548828 0.10424662500000004 Q 5.667381362548827 0.101472 5.730801362548828 0.101472 Q 5.823553112548828 0.101472 5.895296987548828 0.12525449999999982 Q 5.967040862548828 0.14903699999999998 6.008263862548827 0.2021512499999999 Q 6.049486862548828 0.2552654999999999 6.049486862548828 0.3416752499999999 Q 6.049486862548828 0.4050952499999999 6.020155112548828 0.4526602499999999 Q 5.990823362548827 0.50022525 5.948807612548828 0.5295569999999999 Q 5.906791862548827 0.5588887499999999 5.867947112548828 0.5668162499999999 Q 5.871910862548828 0.5668162499999999 5.8762709875488275 0.5668162499999999 Q 5.880631112548827 0.5668162499999999 5.887765862548828 0.5668162499999999 Q 5.958320612548827 0.5715727499999999 6.011831237548828 0.6013008749999998 Q 6.065341862548827 0.6310289999999998 6.0954663625488275 0.68097225 Q 6.125590862548828 0.7309154999999998 6.125590862548828 0.7959209999999999 Q 6.125590862548828 0.9021494999999999 6.084367862548827 0.9683441249999999 Q 6.043144862548828 1.0345387499999998 5.967040862548828 1.0710052499999998 Q 5.890936862548828 1.1074717499999998 5.785897487548827 1.1209485 Q 5.680858112548828 1.1344252499999998 5.554810862548828 1.1344252499999998 Q 5.4953546125488275 1.1344252499999998 5.440654862548827 1.1304614999999998 Q 5.385955112548827 1.12649775 5.347903112548828 1.1185702499999999 M 5.608717862548827 0.8989784999999999 Q 5.615852612548828 0.8997712499999999 5.626158362548828 0.8997712499999999 Q 5.636464112548827 0.8997712499999999 5.649148112548827 0.8997712499999999 Q 5.691956612548828 0.8997712499999999 5.7347651125488275 0.8942219999999999 Q 5.777573612548828 0.8886727499999999 5.812850987548828 0.8759887499999999 Q 5.848128362548827 0.86330475 5.869532612548827 0.8407113749999999 Q 5.890936862548828 0.8181179999999999 5.890936862548828 0.7840297499999999 Q 5.890936862548828 0.7602472499999999 5.8810274875488275 0.742014 Q 5.871118112548827 0.7237807499999999 5.850506612548828 0.7114931249999998 Q 5.829895112548828 0.6992054999999999 5.7969959875488275 0.6932598749999999 Q 5.764096862548827 0.6873142499999999 5.718117362548828 0.6873142499999999 Q 5.704640612548827 0.6873142499999999 5.684821862548827 0.6877106249999999 Q 5.665003112548828 0.6881069999999999 5.643995237548827 0.6892961249999998 Q 5.622987362548828 0.6904852499999998 5.604754112548828 0.6928634999999999 L 5.608717862548827 0.8989784999999999 M 5.601583112548828 0.49229774999999987 Q 5.643598862548828 0.49229774999999987 5.668966862548827 0.48991949999999995 Q 5.6943348625488275 0.4875412499999999 5.713360862548828 0.48119924999999986 Q 5.759340362548827 0.4740644999999999 5.797788737548828 0.44750737499999993 Q 5.836237112548828 0.42095024999999986 5.836237112548828 0.3757634999999999 Q 5.836237112548828 0.32899124999999996 5.803734362548828 0.3056051249999999 Q 5.771231612548828 0.2822189999999999 5.720495612548827 0.2822189999999999 Q 5.6911638625488274 0.2822189999999999 5.656679237548827 0.2857863749999999 Q 5.622194612548828 0.28935374999999997 5.596826612548828 0.2933174999999999 L 5.601583112548828 0.49229774999999987 M 6.534610379882811 1.1352179999999998 Q 6.5211336298828115 1.1360107499999998 6.483478004882811 1.1387853749999999 Q 6.445822379882811 1.14156 6.403806629882811 1.14156 Q 6.372889379882811 1.14156 6.341575754882811 1.1395781249999999 Q 6.310262129882812 1.1375962499999999 6.2801376298828115 1.1344252499999998 Q 6.284101379882811 1.1138137499999998 6.289254254882811 1.0499973749999998 Q 6.294407129882812 0.9861809999999999 6.299560004882811 0.8997712499999999 Q 6.304712879882811 0.8133614999999998 6.309865754882812 0.7210061249999999 Q 6.315018629882811 0.6286507499999999 6.317793254882812 0.5477902499999999 Q 6.3205678798828115 0.4669297499999999 6.3205678798828115 0.41777924999999994 Q 6.336422879882812 0.4169864999999999 6.367340129882812 0.4154009999999999 Q 6.3982573798828115 0.4138154999999999 6.4339311298828115 0.4126263749999999 Q 6.469604879882811 0.41143724999999987 6.502107629882811 0.41024812499999985 Q 6.534610379882811 0.40905899999999995 6.5536363798828114 0.40905899999999995 Q 6.557600129882811 0.4336342499999999 6.5599783798828115 0.48833399999999993 Q 6.562356629882811 0.5430337499999999 6.562356629882811 0.6104175 Q 6.562356629882811 0.68255775 6.560374754882812 0.76341825 Q 6.5583928798828115 0.8442787499999999 6.554825504882811 0.9199863749999999 Q 6.551258129882812 0.9956939999999999 6.545708879882811 1.0531683749999998 Q 6.540159629882812 1.1106427499999998 6.534610379882811 1.1352179999999998 M 6.445822379882811 0.30679424999999994 Q 6.374474879882811 0.30679424999999994 6.326117129882811 0.2651748749999999 Q 6.277759379882811 0.2235554999999999 6.277759379882811 0.15537899999999993 Q 6.277759379882811 0.10860674999999986 6.300749129882812 0.07531124999999994 Q 6.323738879882812 0.04201575000000002 6.360601754882811 0.024178875000000044 Q 6.397464629882811 0.006341999999999848 6.4386876298828115 0.006341999999999848 Q 6.504485879882812 0.006341999999999848 6.547690754882812 0.049150499999999875 Q 6.590895629882811 0.0919589999999999 6.590895629882811 0.15934274999999998 Q 6.590895629882811 0.2219699999999999 6.549672629882812 0.2643821249999999 Q 6.508449629882811 0.30679424999999994 6.445822379882811 0.30679424999999994 M 7.190995767333983 1.09954425 Q 7.168798767333983 1.12332675 7.108153392333983 1.145920125 Q 7.047508017333983 1.1685134999999998 6.972989517333983 1.1685134999999998 Q 6.876274017333984 1.1685134999999998 6.825934392333983 1.12332675 Q 6.775594767333983 1.0781399999999999 6.758154267333984 0.9952976249999999 Q 6.740713767333983 0.9124552499999998 6.740713767333983 0.802263 Q 6.740713767333983 0.7158532499999999 6.742299267333983 0.6286507499999999 Q 6.7438847673339835 0.5414482499999999 6.746659392333983 0.4558312499999999 Q 6.749434017333983 0.37021424999999986 6.753001392333983 0.28975012499999997 Q 6.756568767333984 0.20928599999999997 6.760136142333983 0.13674937499999995 Q 6.763703517333983 0.06421275000000004 6.767667267333983 0.003963750000000044 Q 6.823952517333983 0 6.8715175173339835 0 Q 6.902434767333983 0 6.932559267333983 0.0015855000000000175 Q 6.962683767333983 0.003171000000000035 6.999150267333983 0.006341999999999848 Q 6.995186517333983 0.07531124999999994 6.990033642333983 0.15894637499999997 Q 6.984880767333983 0.2425814999999999 6.980520642333984 0.32978399999999997 Q 6.976160517333983 0.4169864999999999 6.972196767333983 0.49863974999999994 Q 6.968233017333983 0.580293 6.9662511423339835 0.6464876249999999 Q 6.964269267333983 0.7126822499999999 6.964269267333983 0.7523197499999998 Q 6.964269267333983 0.8038484999999999 6.968629392333983 0.8478461249999999 Q 6.972989517333983 0.8918437499999998 6.988844517333983 0.9191936249999999 Q 7.004699517333983 0.9465434999999999 7.036409517333983 0.9465434999999999 Q 7.063363017333983 0.9465434999999999 7.080407142333983 0.9342558749999998 Q 7.097451267333983 0.9219682499999999 7.108549767333983 0.9029422499999998 Q 7.1140990173339835 0.9124552499999998 7.125990267333983 0.9405978749999999 Q 7.137881517333983 0.9687404999999999 7.152151017333983 1.00282875 Q 7.166420517333983 1.0369169999999999 7.177519017333983 1.064266875 Q 7.1886175173339835 1.0916167499999998 7.190995767333983 1.09954425 M 7.70233500073242 1.09954425 Q 7.68013800073242 1.12332675 7.61949262573242 1.145920125 Q 7.55884725073242 1.1685134999999998 7.48432875073242 1.1685134999999998 Q 7.387613250732421 1.1685134999999998 7.33727362573242 1.12332675 Q 7.28693400073242 1.0781399999999999 7.26949350073242 0.9952976249999999 Q 7.25205300073242 0.9124552499999998 7.25205300073242 0.802263 Q 7.25205300073242 0.7158532499999999 7.2536385007324204 0.6286507499999999 Q 7.2552240007324205 0.5414482499999999 7.25799862573242 0.4558312499999999 Q 7.26077325073242 0.37021424999999986 7.26434062573242 0.28975012499999997 Q 7.267908000732421 0.20928599999999997 7.27147537573242 0.13674937499999995 Q 7.27504275073242 0.06421275000000004 7.27900650073242 0.003963750000000044 Q 7.33529175073242 0 7.3828567507324205 0 Q 7.41377400073242 0 7.44389850073242 0.0015855000000000175 Q 7.47402300073242 0.003171000000000035 7.510489500732421 0.006341999999999848 Q 7.50652575073242 0.07531124999999994 7.50137287573242 0.15894637499999997 Q 7.4962200007324205 0.2425814999999999 7.49185987573242 0.32978399999999997 Q 7.48749975073242 0.4169864999999999 7.48353600073242 0.49863974999999994 Q 7.47957225073242 0.580293 7.4775903757324205 0.6464876249999999 Q 7.47560850073242 0.7126822499999999 7.47560850073242 0.7523197499999998 Q 7.47560850073242 0.8038484999999999 7.47996862573242 0.8478461249999999 Q 7.48432875073242 0.8918437499999998 7.50018375073242 0.9191936249999999 Q 7.51603875073242 0.9465434999999999 7.547748750732421 0.9465434999999999 Q 7.57470225073242 0.9465434999999999 7.59174637573242 0.9342558749999998 Q 7.60879050073242 0.9219682499999999 7.61988900073242 0.9029422499999998 Q 7.6254382507324205 0.9124552499999998 7.63732950073242 0.9405978749999999 Q 7.64922075073242 0.9687404999999999 7.66349025073242 1.00282875 Q 7.67775975073242 1.0369169999999999 7.68885825073242 1.064266875 Q 7.6999567507324205 1.0916167499999998 7.70233500073242 1.09954425 M 8.091590734130857 1.1994307499999999 Q 7.998838984130858 1.1994307499999999 7.921545859130858 1.1768373749999999 Q 7.844252734130858 1.1542439999999998 7.790742109130858 1.123723125 Q 7.7372314841308585 1.0932022499999998 7.713448984130858 1.0686269999999998 Q 7.718205484130858 1.0535647499999998 7.732078609130858 1.024629375 Q 7.745951734130858 0.9956939999999999 7.764977734130858 0.9616057499999999 Q 7.784003734130858 0.9275174999999999 7.803029734130858 0.8981857499999999 Q 7.822055734130858 0.8688539999999998 7.837117984130858 0.8545844999999999 Q 7.875169984130858 0.8870872499999999 7.919563984130858 0.9184008749999999 Q 7.963957984130858 0.9497144999999999 8.010730234130857 0.9695332499999999 Q 8.057502484130858 0.9893519999999999 8.097932734130858 0.9893519999999999 Q 8.129642734130858 0.9893519999999999 8.155010734130858 0.9810281249999999 Q 8.180378734130858 0.9727042499999998 8.195044609130859 0.9560564999999999 Q 8.209710484130857 0.9394087499999999 8.209710484130857 0.9148334999999999 Q 8.209710484130857 0.8862944999999999 8.182360609130859 0.8597373749999999 Q 8.155010734130858 0.8331802499999998 8.112202234130859 0.8093977499999998 Q 8.069393734130857 0.7856152499999999 8.022621484130859 0.7665892499999999 Q 7.958408734130858 0.7404284999999999 7.902916234130858 0.7051511249999999 Q 7.847423734130858 0.6698737499999998 7.813335484130858 0.6179486249999999 Q 7.7792472341308585 0.5660234999999999 7.7792472341308585 0.48833399999999993 Q 7.7792472341308585 0.40905899999999995 7.826019484130858 0.3551519999999999 Q 7.872791734130858 0.3012449999999999 7.948499359130858 0.2734987499999999 Q 8.024206984130858 0.24575249999999993 8.110616734130858 0.24575249999999993 Q 8.192269984130858 0.24575249999999993 8.276301484130858 0.26834587499999996 Q 8.360332984130858 0.29093924999999987 8.413447234130858 0.3329549999999999 Q 8.408690734130857 0.34801724999999994 8.393232109130858 0.37893449999999995 Q 8.377773484130858 0.40985174999999996 8.355972859130858 0.4451291249999999 Q 8.334172234130858 0.48040649999999985 8.309596984130858 0.50973825 Q 8.277094234130859 0.48199199999999986 8.227943734130857 0.4566239999999999 Q 8.178793234130858 0.43125599999999986 8.124886234130859 0.43125599999999986 Q 8.097932734130858 0.43125599999999986 8.071375609130857 0.4368052499999999 Q 8.044818484130857 0.4423544999999999 8.027774359130857 0.4566239999999999 Q 8.010730234130857 0.47089349999999985 8.010730234130857 0.4954687499999999 Q 8.010730234130857 0.5192512499999999 8.028963484130857 0.5378808749999999 Q 8.047196734130859 0.5565104999999999 8.082474109130859 0.5739509999999999 Q 8.117751484130858 0.5913914999999998 8.165316484130859 0.6104175 Q 8.212881484130858 0.6294434999999999 8.262031984130857 0.6552078749999999 Q 8.311182484130859 0.68097225 8.352801859130858 0.7166459999999999 Q 8.394421234130858 0.7523197499999998 8.419789234130858 0.7994883749999999 Q 8.445157234130859 0.8466569999999999 8.445157234130859 0.9076987499999999 Q 8.445157234130859 1.005207 8.396799484130858 1.0702124999999998 Q 8.348441734130859 1.1352179999999998 8.267977609130858 1.1673243749999997 Q 8.187513484130857 1.1994307499999999 8.091590734130857 1.1994307499999999" fill="url(#gradient-39207962-18a2-4a84-b8b5-4ef1d1565363)" fill-rule="nonzero"></path></g><g></g></g><defs><clipPath id="SvgjsClipPath10839"><path d=" M 0.4016068568599609 -6.379986246571555 h 7.6823660287117175 v 6.129986246571555 h -7.6823660287117175 Z"></path></clipPath><clipPath id="SvgjsClipPath10834dc6d0504-f047-492a-8517-f9f252796dc7"><path d=" M 0.4016068568599609 -6.379986246571555 L 8.08397288557168 -6.379986246571555 L 8.08397288557168 -0.25 L 0.4016068568599609 -0.25 Z"></path></clipPath><linearGradient id="gradient-39207962-18a2-4a84-b8b5-4ef1d1565363" x1="0" y1="0" x2="1" y2="1"><stop stop-color="#000000" offset="0"></stop><stop stop-color="#3361e1" offset="1"></stop></linearGradient></defs></svg>